<mxfile host="app.diagrams.net" agent="Mozilla/5.0 (Windows NT 10.0; Win64; x64; rv:141.0) Gecko/20100101 Firefox/141.0" version="28.0.7">
  <diagram name="第 1 页" id="Ob11ITMjSA7rpzPY-w6R">
    <mxGraphModel dx="1161" dy="766" grid="1" gridSize="10" guides="1" tooltips="1" connect="1" arrows="1" fold="1" page="1" pageScale="1" pageWidth="827" pageHeight="1169" math="0" shadow="0">
      <root>
        <mxCell id="0" />
        <mxCell id="1" parent="0" />
        <mxCell id="J_DQMkAK38GMDCudq8lv-1" value="" style="rounded=0;whiteSpace=wrap;html=1;rotation=90;glass=0;" vertex="1" parent="1">
          <mxGeometry x="-40" y="130" width="620" height="440" as="geometry" />
        </mxCell>
        <mxCell id="J_DQMkAK38GMDCudq8lv-2" value="" style="endArrow=none;html=1;rounded=0;" edge="1" parent="1">
          <mxGeometry width="50" height="50" relative="1" as="geometry">
            <mxPoint x="50" y="70" as="sourcePoint" />
            <mxPoint x="490" y="70" as="targetPoint" />
          </mxGeometry>
        </mxCell>
        <mxCell id="J_DQMkAK38GMDCudq8lv-3" value="&lt;b&gt;变电站二次回路故障模拟技术&lt;/b&gt;" style="text;whiteSpace=wrap;html=1;" vertex="1" parent="1">
          <mxGeometry x="186" y="43" width="168" height="30" as="geometry" />
        </mxCell>
        <mxCell id="J_DQMkAK38GMDCudq8lv-4" value="" style="rounded=1;whiteSpace=wrap;html=1;dashed=1;dashPattern=12 12;" vertex="1" parent="1">
          <mxGeometry x="60" y="86" width="420" height="150" as="geometry" />
        </mxCell>
        <mxCell id="J_DQMkAK38GMDCudq8lv-5" value="&lt;b&gt;调研梳理&lt;/b&gt;" style="whiteSpace=wrap;html=1;rounded=1;glass=0;fillColor=#0050ef;fontColor=#ffffff;strokeColor=#001DBC;shadow=1;gradientColor=none;" vertex="1" parent="1">
          <mxGeometry x="217.5" y="73" width="105" height="30" as="geometry" />
        </mxCell>
        <mxCell id="J_DQMkAK38GMDCudq8lv-6" style="edgeStyle=orthogonalEdgeStyle;rounded=0;orthogonalLoop=1;jettySize=auto;html=1;exitX=0.5;exitY=1;exitDx=0;exitDy=0;entryX=0.5;entryY=0;entryDx=0;entryDy=0;" edge="1" parent="1" source="J_DQMkAK38GMDCudq8lv-7" target="J_DQMkAK38GMDCudq8lv-10">
          <mxGeometry relative="1" as="geometry" />
        </mxCell>
        <mxCell id="J_DQMkAK38GMDCudq8lv-7" value="光纤断纤" style="rounded=0;whiteSpace=wrap;html=1;fillColor=#ffe6cc;strokeColor=#d79b00;" vertex="1" parent="1">
          <mxGeometry x="75" y="116" width="90" height="30" as="geometry" />
        </mxCell>
        <mxCell id="J_DQMkAK38GMDCudq8lv-8" value="运维处置经验" style="rounded=0;whiteSpace=wrap;html=1;fillColor=#ffe6cc;strokeColor=#d79b00;" vertex="1" parent="1">
          <mxGeometry x="275" y="176" width="90" height="30" as="geometry" />
        </mxCell>
        <mxCell id="J_DQMkAK38GMDCudq8lv-9" value="光功率监测" style="rounded=0;whiteSpace=wrap;html=1;fillColor=#ffe6cc;strokeColor=#d79b00;" vertex="1" parent="1">
          <mxGeometry x="175" y="176" width="90" height="30" as="geometry" />
        </mxCell>
        <mxCell id="J_DQMkAK38GMDCudq8lv-10" value="OTDR检测数据" style="rounded=0;whiteSpace=wrap;html=1;fillColor=#ffe6cc;strokeColor=#d79b00;" vertex="1" parent="1">
          <mxGeometry x="75" y="176" width="90" height="30" as="geometry" />
        </mxCell>
        <mxCell id="J_DQMkAK38GMDCudq8lv-11" style="edgeStyle=orthogonalEdgeStyle;rounded=0;orthogonalLoop=1;jettySize=auto;html=1;exitX=0.5;exitY=1;exitDx=0;exitDy=0;entryX=0.5;entryY=0;entryDx=0;entryDy=0;" edge="1" parent="1" source="J_DQMkAK38GMDCudq8lv-12" target="J_DQMkAK38GMDCudq8lv-9">
          <mxGeometry relative="1" as="geometry" />
        </mxCell>
        <mxCell id="J_DQMkAK38GMDCudq8lv-12" value="弯曲损耗" style="rounded=0;whiteSpace=wrap;html=1;fillColor=#ffe6cc;strokeColor=#d79b00;" vertex="1" parent="1">
          <mxGeometry x="175" y="116" width="90" height="30" as="geometry" />
        </mxCell>
        <mxCell id="J_DQMkAK38GMDCudq8lv-13" style="edgeStyle=orthogonalEdgeStyle;rounded=0;orthogonalLoop=1;jettySize=auto;html=1;exitX=0.5;exitY=1;exitDx=0;exitDy=0;entryX=0.5;entryY=0;entryDx=0;entryDy=0;" edge="1" parent="1" source="J_DQMkAK38GMDCudq8lv-14" target="J_DQMkAK38GMDCudq8lv-8">
          <mxGeometry relative="1" as="geometry" />
        </mxCell>
        <mxCell id="J_DQMkAK38GMDCudq8lv-14" value="设备故障" style="rounded=0;whiteSpace=wrap;html=1;fillColor=#ffe6cc;strokeColor=#d79b00;" vertex="1" parent="1">
          <mxGeometry x="275" y="116" width="90" height="30" as="geometry" />
        </mxCell>
        <mxCell id="J_DQMkAK38GMDCudq8lv-15" style="edgeStyle=orthogonalEdgeStyle;rounded=0;orthogonalLoop=1;jettySize=auto;html=1;exitX=0.5;exitY=1;exitDx=0;exitDy=0;entryX=0.5;entryY=0;entryDx=0;entryDy=0;" edge="1" parent="1" source="J_DQMkAK38GMDCudq8lv-16" target="J_DQMkAK38GMDCudq8lv-17">
          <mxGeometry relative="1" as="geometry" />
        </mxCell>
        <mxCell id="J_DQMkAK38GMDCudq8lv-16" value="接头损耗" style="rounded=0;whiteSpace=wrap;html=1;fillColor=#ffe6cc;strokeColor=#d79b00;" vertex="1" parent="1">
          <mxGeometry x="375" y="116" width="90" height="30" as="geometry" />
        </mxCell>
        <mxCell id="J_DQMkAK38GMDCudq8lv-17" value="历史故障案例" style="rounded=0;whiteSpace=wrap;html=1;fillColor=#ffe6cc;strokeColor=#d79b00;" vertex="1" parent="1">
          <mxGeometry x="375" y="176" width="90" height="30" as="geometry" />
        </mxCell>
        <mxCell id="J_DQMkAK38GMDCudq8lv-18" value="" style="rounded=1;whiteSpace=wrap;html=1;dashed=1;dashPattern=12 12;" vertex="1" parent="1">
          <mxGeometry x="60" y="270" width="420" height="190" as="geometry" />
        </mxCell>
        <mxCell id="J_DQMkAK38GMDCudq8lv-19" value="&lt;b&gt;研判分析&lt;/b&gt;" style="whiteSpace=wrap;html=1;rounded=1;glass=0;fillColor=#0050ef;fontColor=#ffffff;strokeColor=#001DBC;shadow=1;gradientColor=none;" vertex="1" parent="1">
          <mxGeometry x="217.5" y="250" width="105" height="30" as="geometry" />
        </mxCell>
        <mxCell id="J_DQMkAK38GMDCudq8lv-20" value="故障传播网络模型" style="rounded=0;whiteSpace=wrap;html=1;fillColor=#d5e8d4;strokeColor=#82b366;" vertex="1" parent="1">
          <mxGeometry x="75" y="310" width="30" height="80" as="geometry" />
        </mxCell>
        <mxCell id="J_DQMkAK38GMDCudq8lv-21" value="&lt;div&gt;光纤网络&lt;/div&gt;&lt;div&gt;仿真环境&lt;/div&gt;" style="rounded=0;whiteSpace=wrap;html=1;fillColor=#d5e8d4;strokeColor=#82b366;" vertex="1" parent="1">
          <mxGeometry x="130" y="360" width="62.5" height="40" as="geometry" />
        </mxCell>
        <mxCell id="J_DQMkAK38GMDCudq8lv-27" style="edgeStyle=orthogonalEdgeStyle;rounded=0;orthogonalLoop=1;jettySize=auto;html=1;exitX=1;exitY=0.5;exitDx=0;exitDy=0;entryX=0;entryY=0.5;entryDx=0;entryDy=0;" edge="1" parent="1" source="J_DQMkAK38GMDCudq8lv-22" target="J_DQMkAK38GMDCudq8lv-24">
          <mxGeometry relative="1" as="geometry" />
        </mxCell>
        <mxCell id="J_DQMkAK38GMDCudq8lv-22" value="&lt;div&gt;贝叶斯&lt;/div&gt;&lt;div&gt;推理算法&lt;/div&gt;" style="rounded=0;whiteSpace=wrap;html=1;fillColor=#d5e8d4;strokeColor=#82b366;" vertex="1" parent="1">
          <mxGeometry x="130" y="300" width="62.5" height="40" as="geometry" />
        </mxCell>
        <mxCell id="J_DQMkAK38GMDCudq8lv-23" value="" style="strokeWidth=2;html=1;shape=mxgraph.flowchart.annotation_2;align=left;labelPosition=right;pointerEvents=1;rotation=0;" vertex="1" parent="1">
          <mxGeometry x="105" y="317.5" width="25" height="65" as="geometry" />
        </mxCell>
        <mxCell id="J_DQMkAK38GMDCudq8lv-28" style="edgeStyle=orthogonalEdgeStyle;rounded=0;orthogonalLoop=1;jettySize=auto;html=1;exitX=1;exitY=0.5;exitDx=0;exitDy=0;entryX=0;entryY=0.5;entryDx=0;entryDy=0;" edge="1" parent="1" source="J_DQMkAK38GMDCudq8lv-24" target="J_DQMkAK38GMDCudq8lv-25">
          <mxGeometry relative="1" as="geometry" />
        </mxCell>
        <mxCell id="J_DQMkAK38GMDCudq8lv-24" value="&lt;div&gt;模糊逻辑&lt;/div&gt;&lt;div&gt;评估&lt;/div&gt;" style="rounded=0;whiteSpace=wrap;html=1;fillColor=#d5e8d4;strokeColor=#82b366;" vertex="1" parent="1">
          <mxGeometry x="212.5" y="300" width="62.5" height="40" as="geometry" />
        </mxCell>
        <mxCell id="J_DQMkAK38GMDCudq8lv-29" style="edgeStyle=orthogonalEdgeStyle;rounded=0;orthogonalLoop=1;jettySize=auto;html=1;exitX=1;exitY=0.5;exitDx=0;exitDy=0;entryX=0;entryY=0.5;entryDx=0;entryDy=0;" edge="1" parent="1" source="J_DQMkAK38GMDCudq8lv-25" target="J_DQMkAK38GMDCudq8lv-26">
          <mxGeometry relative="1" as="geometry" />
        </mxCell>
        <mxCell id="J_DQMkAK38GMDCudq8lv-25" value="&lt;div&gt;机器学习&lt;/div&gt;&lt;div&gt;分类&lt;/div&gt;" style="rounded=0;whiteSpace=wrap;html=1;fillColor=#d5e8d4;strokeColor=#82b366;" vertex="1" parent="1">
          <mxGeometry x="295" y="300" width="62.5" height="40" as="geometry" />
        </mxCell>
        <mxCell id="J_DQMkAK38GMDCudq8lv-26" value="&lt;div&gt;概率排序&lt;/div&gt;&lt;div&gt;输出&lt;/div&gt;" style="rounded=0;whiteSpace=wrap;html=1;fillColor=#d5e8d4;strokeColor=#82b366;" vertex="1" parent="1">
          <mxGeometry x="377.25" y="300" width="62.5" height="40" as="geometry" />
        </mxCell>
        <mxCell id="J_DQMkAK38GMDCudq8lv-31" value="&lt;div&gt;检修步骤&lt;/div&gt;&lt;div&gt;规划&lt;/div&gt;" style="rounded=0;whiteSpace=wrap;html=1;fillColor=#d5e8d4;strokeColor=#82b366;" vertex="1" parent="1">
          <mxGeometry x="212.5" y="362.5" width="62.5" height="40" as="geometry" />
        </mxCell>
        <mxCell id="J_DQMkAK38GMDCudq8lv-33" value="&lt;div&gt;安全措施&lt;/div&gt;&lt;div&gt;配置&lt;/div&gt;" style="rounded=0;whiteSpace=wrap;html=1;fillColor=#d5e8d4;strokeColor=#82b366;" vertex="1" parent="1">
          <mxGeometry x="297.5" y="362.5" width="62.5" height="40" as="geometry" />
        </mxCell>
        <mxCell id="J_DQMkAK38GMDCudq8lv-34" value="&lt;div&gt;应急处置&lt;/div&gt;&lt;div&gt;方案&lt;/div&gt;" style="rounded=0;whiteSpace=wrap;html=1;fillColor=#d5e8d4;strokeColor=#82b366;" vertex="1" parent="1">
          <mxGeometry x="379.75" y="362.5" width="62.5" height="40" as="geometry" />
        </mxCell>
        <mxCell id="J_DQMkAK38GMDCudq8lv-35" value="" style="strokeWidth=2;html=1;shape=mxgraph.flowchart.annotation_2;align=left;labelPosition=right;pointerEvents=1;rotation=-90;" vertex="1" parent="1">
          <mxGeometry x="317.5" y="330" width="20" height="170" as="geometry" />
        </mxCell>
        <mxCell id="J_DQMkAK38GMDCudq8lv-36" value="策略生成" style="rounded=0;whiteSpace=wrap;html=1;fillColor=#d5e8d4;strokeColor=#82b366;" vertex="1" parent="1">
          <mxGeometry x="297.5" y="424" width="62.5" height="26" as="geometry" />
        </mxCell>
        <mxCell id="J_DQMkAK38GMDCudq8lv-37" value="" style="rounded=1;whiteSpace=wrap;html=1;dashed=1;dashPattern=12 12;" vertex="1" parent="1">
          <mxGeometry x="60" y="480" width="420" height="150" as="geometry" />
        </mxCell>
        <mxCell id="J_DQMkAK38GMDCudq8lv-38" value="&lt;b&gt;研究成果&lt;/b&gt;" style="whiteSpace=wrap;html=1;rounded=1;glass=0;fillColor=#0050ef;fontColor=#ffffff;strokeColor=#001DBC;shadow=1;gradientColor=none;" vertex="1" parent="1">
          <mxGeometry x="217.5" y="470" width="105" height="30" as="geometry" />
        </mxCell>
        <mxCell id="J_DQMkAK38GMDCudq8lv-49" style="edgeStyle=orthogonalEdgeStyle;rounded=0;orthogonalLoop=1;jettySize=auto;html=1;exitX=1;exitY=0.5;exitDx=0;exitDy=0;entryX=0;entryY=0.5;entryDx=0;entryDy=0;" edge="1" parent="1" source="J_DQMkAK38GMDCudq8lv-39" target="J_DQMkAK38GMDCudq8lv-41">
          <mxGeometry relative="1" as="geometry" />
        </mxCell>
        <mxCell id="J_DQMkAK38GMDCudq8lv-39" value="&lt;div&gt;光纤故障&lt;/div&gt;&lt;div&gt;特征库&lt;/div&gt;" style="rounded=0;whiteSpace=wrap;html=1;fillColor=#e1d5e7;strokeColor=#9673a6;" vertex="1" parent="1">
          <mxGeometry x="72.5" y="515" width="35" height="70" as="geometry" />
        </mxCell>
        <mxCell id="J_DQMkAK38GMDCudq8lv-52" style="edgeStyle=orthogonalEdgeStyle;rounded=0;orthogonalLoop=1;jettySize=auto;html=1;exitX=1;exitY=0.5;exitDx=0;exitDy=0;entryX=0;entryY=0.5;entryDx=0;entryDy=0;" edge="1" parent="1" source="J_DQMkAK38GMDCudq8lv-41" target="J_DQMkAK38GMDCudq8lv-42">
          <mxGeometry relative="1" as="geometry" />
        </mxCell>
        <mxCell id="J_DQMkAK38GMDCudq8lv-41" value="多源融合定位算法" style="rounded=0;whiteSpace=wrap;html=1;fillColor=#e1d5e7;strokeColor=#9673a6;" vertex="1" parent="1">
          <mxGeometry x="138" y="515" width="35" height="70" as="geometry" />
        </mxCell>
        <mxCell id="J_DQMkAK38GMDCudq8lv-54" style="edgeStyle=orthogonalEdgeStyle;rounded=0;orthogonalLoop=1;jettySize=auto;html=1;exitX=1;exitY=0.5;exitDx=0;exitDy=0;entryX=0;entryY=0.5;entryDx=0;entryDy=0;" edge="1" parent="1" source="J_DQMkAK38GMDCudq8lv-42" target="J_DQMkAK38GMDCudq8lv-44">
          <mxGeometry relative="1" as="geometry" />
        </mxCell>
        <mxCell id="J_DQMkAK38GMDCudq8lv-42" value="智能检修策略引擎" style="rounded=0;whiteSpace=wrap;html=1;fillColor=#e1d5e7;strokeColor=#9673a6;" vertex="1" parent="1">
          <mxGeometry x="200.5" y="515" width="35" height="70" as="geometry" />
        </mxCell>
        <mxCell id="J_DQMkAK38GMDCudq8lv-43" value="自动安措票生成工具" style="rounded=0;whiteSpace=wrap;html=1;fillColor=#e1d5e7;strokeColor=#9673a6;" vertex="1" parent="1">
          <mxGeometry x="330" y="515" width="35" height="70" as="geometry" />
        </mxCell>
        <mxCell id="J_DQMkAK38GMDCudq8lv-55" style="edgeStyle=orthogonalEdgeStyle;rounded=0;orthogonalLoop=1;jettySize=auto;html=1;exitX=1;exitY=0.5;exitDx=0;exitDy=0;entryX=0;entryY=0.5;entryDx=0;entryDy=0;" edge="1" parent="1" source="J_DQMkAK38GMDCudq8lv-44" target="J_DQMkAK38GMDCudq8lv-43">
          <mxGeometry relative="1" as="geometry" />
        </mxCell>
        <mxCell id="J_DQMkAK38GMDCudq8lv-44" value="故障三维可视标注" style="rounded=0;whiteSpace=wrap;html=1;fillColor=#e1d5e7;strokeColor=#9673a6;" vertex="1" parent="1">
          <mxGeometry x="265" y="515" width="35" height="70" as="geometry" />
        </mxCell>
        <mxCell id="J_DQMkAK38GMDCudq8lv-45" value="&lt;div&gt;实时防误&lt;/div&gt;&lt;div&gt;校核&lt;/div&gt;" style="rounded=0;whiteSpace=wrap;html=1;fillColor=#e1d5e7;strokeColor=#9673a6;" vertex="1" parent="1">
          <mxGeometry x="391" y="507" width="69" height="30" as="geometry" />
        </mxCell>
        <mxCell id="J_DQMkAK38GMDCudq8lv-46" value="&lt;div&gt;仿真验证&lt;/div&gt;&lt;div&gt;测试&lt;/div&gt;" style="rounded=0;whiteSpace=wrap;html=1;fillColor=#e1d5e7;strokeColor=#9673a6;" vertex="1" parent="1">
          <mxGeometry x="390" y="570" width="69" height="30" as="geometry" />
        </mxCell>
        <mxCell id="J_DQMkAK38GMDCudq8lv-47" value="" style="strokeWidth=2;html=1;shape=mxgraph.flowchart.annotation_2;align=left;labelPosition=right;pointerEvents=1;rotation=0;" vertex="1" parent="1">
          <mxGeometry x="366" y="520" width="25" height="65" as="geometry" />
        </mxCell>
      </root>
    </mxGraphModel>
  </diagram>
</mxfile>
